<svg xmlns="http://www.w3.org/2000/svg" xmlns:svg="http://www.w3.org/2000/svg" xmlns:xlink="http://www.w3.org/1999/xlink" id="svg1" width="241.89" height="226.772" version="1.1"><defs id="defs3"><linearGradient id="linearGradient4044"><stop style="stop-color:#fff;stop-opacity:0" id="stop4045" offset="0"/><stop style="stop-color:#363636;stop-opacity:.1875" id="stop4046" offset="1"/></linearGradient><linearGradient id="linearGradient3418"><stop style="stop-color:#f7f7f7;stop-opacity:1" id="stop3419" offset="0"/><stop style="stop-color:#dedede;stop-opacity:1" id="stop3420" offset="1"/></linearGradient><linearGradient id="linearGradient2791"><stop style="stop-color:#fbfbfb;stop-opacity:1" id="stop2792" offset="0"/><stop style="stop-color:#e9e9e9;stop-opacity:1" id="stop2793" offset="1"/></linearGradient><linearGradient id="linearGradient2794" x1=".497" x2=".491" y1=".058" y2=".961" xlink:href="#linearGradient2791"/><linearGradient id="linearGradient3417" x1=".538" x2=".533" y1=".013" y2=".981" xlink:href="#linearGradient3418"/><linearGradient id="linearGradient4043" x1=".497" x2=".497" y1=".013" y2=".994" xlink:href="#linearGradient4044"/><clipPath id="clipPath3326" clipPathUnits="userSpaceOnUse"><path id="path3328" d="m 182.48032,108.07086 a 67.322838,67.322838 0 1 1 -134.645679,0 67.322838,67.322838 0 1 1 134.645679,0 z" transform="translate(0.41086295,-1.6820713e-6)" style="color:#000;fill:none;stroke:#000;stroke-width:3.54330683;stroke-linecap:butt;stroke-linejoin:miter;stroke-miterlimit:4;stroke-opacity:1;stroke-dashoffset:0;marker:none;visibility:visible;display:inline;overflow:visible"/></clipPath></defs><metadata id="metadata4"/><rect style="fill:url(#linearGradient4043);fill-opacity:1;fill-rule:evenodd;stroke:none;stroke-width:3pt;stroke-linecap:butt;stroke-linejoin:miter;stroke-opacity:1" id="rect4047" width="184.252" height="177.157" x="23.031" y="23.04" rx="17.595" ry="14.164"/><rect style="fill:url(#linearGradient4043);fill-opacity:1;fill-rule:evenodd;stroke:none;stroke-width:3pt;stroke-linecap:butt;stroke-linejoin:miter;stroke-opacity:1" id="rect3421" width="177.165" height="173.622" x="26.575" y="23.031" rx="17.595" ry="14.164"/><rect style="fill:url(#linearGradient2794);fill-opacity:1;fill-rule:evenodd;stroke:none;stroke-width:3.5262673;stroke-linecap:butt;stroke-linejoin:miter;stroke-miterlimit:4;stroke-opacity:1" id="rect2169" width="170.382" height="159.8" x="30.118" y="26.554" rx="17.595" ry="14.164"/><rect style="fill:url(#linearGradient3417);fill-opacity:1;fill-rule:evenodd;stroke:none;stroke-width:3pt;stroke-linecap:butt;stroke-linejoin:miter;stroke-opacity:1" id="rect3416" width="163.397" height="149.2" x="31.955" y="31.699" rx="17.595" ry="14.164"/><rect style="fill:#c5d2c8;fill-opacity:1;fill-rule:evenodd;stroke:#000;stroke-width:3.5262673;stroke-linecap:butt;stroke-linejoin:miter;stroke-miterlimit:4;stroke-opacity:1" id="rect386" width="170.382" height="159.8" x="29.993" y="26.575" rx="17.595" ry="14.164"/><g id="g3320" clip-path="url(#clipPath3326)"><path id="path13" d="M 47.593750,26.562500 C 37.846387,26.562500 30.000000,32.902883 30.000000,40.750000 L 30.000000,157.31250 C 30.006008,157.31920 30.121170,157.68750 30.125000,157.68750 L 65.562500,148.31250 L 120.31250,93.906250 L 114.00000,28.000000 C 114.00000,28.000000 111.27000,26.882252 110.56250,26.562500 L 47.593750,26.562500 z" style="fill:#83a67f;fill-opacity:1;fill-rule:evenodd;stroke:#000;stroke-width:1.775;stroke-linecap:butt;stroke-linejoin:miter;stroke-opacity:1;stroke-miterlimit:4;stroke-dasharray:none"/><path id="path12" d="M 47.593750,26.562500 C 37.846387,26.562500 30.000000,32.902883 30.000000,40.750000 L 30.000000,95.031250 C 30.005058,95.045916 30.125000,95.437500 30.125000,95.437500 L 76.187500,83.281250 L 80.187500,26.562500 L 47.593750,26.562500 z" style="fill:#d1940c;fill-opacity:1;fill-rule:evenodd;stroke:#000;stroke-width:1.775;stroke-linecap:butt;stroke-linejoin:miter;stroke-opacity:1;stroke-miterlimit:4;stroke-dasharray:none"/><path id="path15" d="M 180.40625,26.562500 C 180.26064,26.680328 179.46875,27.218750 179.46875,27.218750 L 149.50000,122.25000 L 69.093750,186.03125 C 68.976443,186.05329 70.037845,186.29787 70.187500,186.37500 L 182.78125,186.37500 C 192.52861,186.37500 200.37500,180.06587 200.37500,172.21875 L 200.37500,40.750000 C 200.37500,32.902885 192.52862,26.562500 182.78125,26.562500 L 180.40625,26.562500 z" style="fill:#83a67f;fill-opacity:1;fill-rule:evenodd;stroke:#000;stroke-width:1.775;stroke-linecap:butt;stroke-linejoin:miter;stroke-opacity:1;stroke-miterlimit:4;stroke-dasharray:none"/><path id="path14" d="M 200.18750,123.84375 L 155.81250,145.93750 L 143.96875,185.78125 C 143.96875,185.78125 145.28255,186.27152 145.53125,186.37500 L 182.78125,186.37500 C 192.52861,186.37500 200.37500,180.06587 200.37500,172.21875 L 200.37500,123.96875 C 200.32000,123.94859 200.23799,123.84375 200.18750,123.84375 z" style="fill:#d1940c;fill-opacity:1;fill-rule:evenodd;stroke:#000;stroke-width:1.775;stroke-linecap:butt;stroke-linejoin:miter;stroke-opacity:1;stroke-miterlimit:4;stroke-dasharray:none"/></g><rect style="fill:none;fill-opacity:1;fill-rule:evenodd;stroke:#000;stroke-width:3.5262673;stroke-linecap:butt;stroke-linejoin:miter;stroke-miterlimit:4;stroke-opacity:1" id="rect5928" width="170.382" height="159.8" x="29.993" y="26.575" rx="17.595" ry="14.164"/><path id="path1330" d="m 182.48032,108.07086 a 67.322838,67.322838 0 1 1 -134.645679,0 67.322838,67.322838 0 1 1 134.645679,0 z" transform="translate(0.8052941,-4.8659918e-6)" style="color:#000;fill:none;stroke:#000;stroke-width:3.54330683;stroke-linecap:butt;stroke-linejoin:miter;stroke-miterlimit:4;stroke-opacity:1;stroke-dashoffset:0;marker:none;visibility:visible;display:inline;overflow:visible"/><path id="path571" d="m 117.14606,41.917455 0,133.476235" style="fill:none;stroke:#000;stroke-width:3.54330683;stroke-linecap:butt;stroke-linejoin:miter;stroke-miterlimit:4;stroke-opacity:1"/><path id="path1334" d="m 49.823233,109.24028 134.645667,0" style="fill:none;stroke:#000;stroke-width:3.54330683;stroke-linecap:butt;stroke-linejoin:miter;stroke-miterlimit:4;stroke-opacity:1"/></svg>