<svg xmlns="http://www.w3.org/2000/svg" xmlns:cc="http://web.resource.org/cc/" xmlns:svg="http://www.w3.org/2000/svg" id="svg1332" width="18" height="18"><metadata id="metadata4"/><g id="layer1"><path style="stroke-dasharray:none;opacity:1;overflow:visible;display:inline;visibility:visible;marker-end:none;marker-mid:none;marker-start:none;marker:none;stroke-opacity:1;stroke-dashoffset:0;stroke-miterlimit:4;stroke-linejoin:miter;stroke-linecap:butt;stroke-width:1;stroke:#000;fill-rule:evenodd;fill-opacity:.75;fill:none;color:#000" id="path2110" d="M 15.500000 8.5000000 A 7.0000000 7.0000000 0 1 1 1.5000000,8.5000000 A 7.0000000 7.0000000 0 1 1 15.500000 8.5000000 z"/><path style="stroke-miterlimit:4;stroke-dasharray:none;stroke-opacity:1;stroke-linejoin:miter;stroke-linecap:butt;stroke-width:1;stroke:#000;fill-rule:evenodd;fill-opacity:.75;fill:none" id="path2112" d="M 8.5000000,1.5000000 L 8.5000000,8.5000000 L 8.5000000,15.500000"/><path style="stroke-miterlimit:4;stroke-dasharray:none;stroke-opacity:1;stroke-linejoin:miter;stroke-linecap:butt;stroke-width:1;stroke:#000;fill-rule:evenodd;fill-opacity:.75;fill:none" id="path2114" d="M 15.500000,8.5000000 L 1.5000000,8.5000000"/><path style="overflow:visible;display:inline;visibility:visible;marker-end:none;marker-mid:none;marker-start:none;marker:none;stroke-opacity:1;stroke-dashoffset:0;stroke-miterlimit:4;stroke-linejoin:miter;stroke-linecap:butt;stroke-width:1;stroke:red;fill-rule:evenodd;fill-opacity:.75;fill:none;color:#000" id="path2116" d="M 8.5000000,8.5000000 C 8.6082877,8.4428708 8.6289991,8.6554373 8.6101396,8.7087682 C 8.5101600,8.9914907 8.1203472,8.9467765 7.9296284,8.8009103 C 7.4973325,8.4702802 7.6124556,7.8180306 7.9582868,7.4731898 C 8.5571624,6.8760292 9.5431620,7.0812976 10.058301,7.6778888 C 10.837263,8.5800172 10.524169,9.9529751 9.6361877,10.653629 C 8.3989898,11.629829 6.5950228,11.194049 5.6946716,9.9800041 C 4.5071846,8.3787814 5.0785520,6.1052908 6.6493012,4.9920245 C 8.6411408,3.5803109 11.418845,4.2987773 12.757404,6.2539259 C 13.616352,7.5085359 13.830292,9.1226367 13.392791,10.571864"/></g></svg>