<svg width="109.6" height="109.6" viewBox="0 0 82.2 82.2" xml:space="preserve"><g id="Layer_x0020_1" style="fill-rule:nonzero;clip-rule:nonzero;stroke:#000;stroke-miterlimit:4"><linearGradient id="aigrd1" x1="19.635" x2="69.422" y1="17.551" y2="72.172" gradientUnits="userSpaceOnUse"><stop offset="0" style="stop-color:#936"/><stop offset="1" style="stop-color:#7a2952"/></linearGradient><path style="fill:url(#aigrd1)" d="M81.7,41.1c0,22.4-18.2,40.6-40.6,40.6S0.5,63.5,0.5,41.1S18.7,0.5,41.1,0.5s40.6,18.2,40.6,40.6z"/><linearGradient id="aigrd2" x1="21.637" x2="81.574" y1="49.536" y2="88.689" gradientUnits="userSpaceOnUse"><stop offset="0" style="stop-color:#99f"/><stop offset="1" style="stop-color:#9968ff"/></linearGradient><path style="fill:url(#aigrd2);stroke:none" d="M41.1,41.1L23.2,77.5c5.4,2.7,11.5,4.2,17.9,4.2c16,0,29.8-9.2,36.4-22.7L41.1,41.1z"/><linearGradient id="aigrd3" x1="10.77" x2="43.64" y1="32.389" y2="81.21" gradientUnits="userSpaceOnUse"><stop offset="0" style="stop-color:#ffc"/><stop offset=".989" style="stop-color:#ffffb8"/></linearGradient><path style="fill:url(#aigrd3);stroke:none" d="M41.1,41.1l-40.6,0c0,16,9.2,29.8,22.7,36.4l17.9-36.4z"/><linearGradient id="aigrd4" x1="26.316" x2="60.608" y1="24.88" y2="62.502" gradientUnits="userSpaceOnUse"><stop offset="0" style="stop-color:#936"/><stop offset="1" style="stop-color:#7a2952"/></linearGradient><path style="fill:url(#aigrd4);stroke-width:.6888" d="M41.1,13.1c-15.4,0-28,12.5-28,28c0,15.4,12.5,28,28,28c15.4,0,28-12.5,28-28c0-15.4-12.5-28-28-28z M41.1,56.8c-8.7,0-15.7-7-15.7-15.7s7-15.7,15.7-15.7s15.7,7,15.7,15.7s-7,15.7-15.7,15.7z"/><linearGradient id="aigrd5" x1="34.902" x2="73.014" y1="40.475" y2="65.371" gradientUnits="userSpaceOnUse"><stop offset="0" style="stop-color:#99f"/><stop offset="1" style="stop-color:#9968ff"/></linearGradient><path style="fill:url(#aigrd5);stroke:none" d="M69.1,41.1c0-3.2-0.5-6.2-1.5-9L56,36c0.5,1.6,0.9,3.3,0.9,5.1c0,8.7-7,15.7-15.7,15.7c-2.5,0-4.9-0.6-6.9-1.6l-5.4,11c3.7,1.8,7.9,2.9,12.4,2.9c15.4,0,28-12.5,28-28z"/><linearGradient id="aigrd6" x1="12.407" x2="40.19" y1="31.987" y2="73.252" gradientUnits="userSpaceOnUse"><stop offset="0" style="stop-color:#ffc"/><stop offset=".989" style="stop-color:#ffffb8"/></linearGradient><path style="fill:url(#aigrd6);stroke:none" d="M28.7,66.2l5.4-11c-5.2-2.6-8.8-7.9-8.8-14.1c0-1.8,0.3-3.5,0.9-5.1l-11.6-4c-1,2.9-1.5,5.9-1.5,9.1c0,11,6.4,20.5,15.6,25.1z"/></g></svg>