<svg xmlns="http://www.w3.org/2000/svg" xmlns:cc="http://web.resource.org/cc/" xmlns:xlink="http://www.w3.org/1999/xlink" id="svg1" width="241.89" height="226.772"><defs id="defs3"><linearGradient id="linearGradient4044"><stop style="stop-color:#fff;stop-opacity:0" id="stop4045" offset="0"/><stop style="stop-color:#363636;stop-opacity:.1875" id="stop4046" offset="1"/></linearGradient><linearGradient id="linearGradient3418"><stop style="stop-color:#f7f7f7;stop-opacity:1" id="stop3419" offset="0"/><stop style="stop-color:#dedede;stop-opacity:1" id="stop3420" offset="1"/></linearGradient><linearGradient id="linearGradient2791"><stop style="stop-color:#fbfbfb;stop-opacity:1" id="stop2792" offset="0"/><stop style="stop-color:#e9e9e9;stop-opacity:1" id="stop2793" offset="1"/></linearGradient><linearGradient id="linearGradient2794" x1=".497" x2=".491" y1=".058" y2=".961" xlink:href="#linearGradient2791"/><linearGradient id="linearGradient3417" x1=".538" x2=".533" y1=".013" y2=".981" xlink:href="#linearGradient3418"/><linearGradient id="linearGradient4043" x1=".497" x2=".497" y1=".013" y2=".994" xlink:href="#linearGradient4044"/></defs><metadata id="metadata4"/><rect style="fill:url(#linearGradient4043);fill-opacity:.74901998;fill-rule:evenodd;stroke:none;stroke-width:3pt;stroke-linecap:butt;stroke-linejoin:miter;stroke-opacity:1" id="rect4047" width="184.252" height="177.157" x="23.031" y="23.04" rx="17.595" ry="14.164"/><rect style="fill:url(#linearGradient4043);fill-opacity:.74901998;fill-rule:evenodd;stroke:none;stroke-width:3pt;stroke-linecap:butt;stroke-linejoin:miter;stroke-opacity:1" id="rect3421" width="177.165" height="173.622" x="26.575" y="23.031" rx="17.595" ry="14.164"/><rect style="fill:url(#linearGradient2794);fill-opacity:.74901998;fill-rule:evenodd;stroke:none;stroke-width:3.5262673;stroke-linecap:butt;stroke-linejoin:miter;stroke-miterlimit:4;stroke-opacity:1" id="rect2169" width="170.382" height="159.8" x="30.118" y="26.554" rx="17.595" ry="14.164"/><rect style="fill:url(#linearGradient3417);fill-opacity:.74901998;fill-rule:evenodd;stroke:none;stroke-width:3pt;stroke-linecap:butt;stroke-linejoin:miter;stroke-opacity:1" id="rect3416" width="163.397" height="149.2" x="31.955" y="31.699" rx="17.595" ry="14.164"/><path style="fill:#d1940c;fill-opacity:1;fill-rule:evenodd;stroke:#000;stroke-width:1.7716535;stroke-linecap:butt;stroke-linejoin:miter;stroke-miterlimit:4;stroke-opacity:1;stroke-dasharray:none" id="path4680" d="M 200.18750 41.531250 L 30.000000 42.156250 L 30.000000 172.21875 C 30.000000 180.06587 37.846387 186.37500 47.593750 186.37500 L 182.78125 186.37500 C 191.85923 186.37500 199.20984 180.87276 200.18750 173.78125 L 200.18750 41.531250 z"/><path style="fill:#83a67f;fill-opacity:1;fill-rule:evenodd;stroke:#000;stroke-width:1.7716535;stroke-linecap:butt;stroke-linejoin:miter;stroke-miterlimit:4;stroke-opacity:1;stroke-dasharray:none" id="path5302" d="M 157.59375 55.937500 L 154.06250 61.656250 L 112.00000 129.59375 L 73.375000 151.93750 L 30.000000 98.250000 L 30.000000 172.21875 C 30.000000 180.06587 37.846387 186.37500 47.593750 186.37500 L 182.78125 186.37500 C 192.00598 186.37500 199.43855 180.69559 200.21875 173.43750 L 200.37500 116.81250 L 161.43750 61.437500 L 157.59375 55.937500 z"/><rect style="fill:none;fill-opacity:.74901998;fill-rule:evenodd;stroke:#000;stroke-width:3.5262673;stroke-linecap:butt;stroke-linejoin:miter;stroke-miterlimit:4;stroke-opacity:1" id="rect5928" width="170.382" height="159.8" x="29.993" y="26.575" rx="17.595" ry="14.164"/></svg>