<svg xmlns="http://www.w3.org/2000/svg" xmlns:cc="http://web.resource.org/cc/" xmlns:xlink="http://www.w3.org/1999/xlink" id="svg1" width="241.89" height="226.772"><defs id="defs3"><linearGradient id="linearGradient4044"><stop style="stop-color:#fff;stop-opacity:0" id="stop4045" offset="0"/><stop style="stop-color:#363636;stop-opacity:.1875" id="stop4046" offset="1"/></linearGradient><linearGradient id="linearGradient3418"><stop style="stop-color:#f7f7f7;stop-opacity:1" id="stop3419" offset="0"/><stop style="stop-color:#dedede;stop-opacity:1" id="stop3420" offset="1"/></linearGradient><linearGradient id="linearGradient2791"><stop style="stop-color:#fbfbfb;stop-opacity:1" id="stop2792" offset="0"/><stop style="stop-color:#e9e9e9;stop-opacity:1" id="stop2793" offset="1"/></linearGradient><linearGradient id="linearGradient2794" x1=".497" x2=".491" y1=".058" y2=".961" xlink:href="#linearGradient2791"/><linearGradient id="linearGradient3417" x1=".538" x2=".533" y1=".013" y2=".981" xlink:href="#linearGradient3418"/><linearGradient id="linearGradient4043" x1=".497" x2=".497" y1=".013" y2=".994" xlink:href="#linearGradient4044"/></defs><metadata id="metadata4"/><rect style="fill:url(#linearGradient4043);fill-opacity:.74901998;fill-rule:evenodd;stroke:none;stroke-width:3pt;stroke-linecap:butt;stroke-linejoin:miter;stroke-opacity:1" id="rect4047" width="184.252" height="177.157" x="23.031" y="23.04" rx="17.595" ry="14.164"/><rect style="fill:url(#linearGradient4043);fill-opacity:.74901998;fill-rule:evenodd;stroke:none;stroke-width:3pt;stroke-linecap:butt;stroke-linejoin:miter;stroke-opacity:1" id="rect3421" width="177.165" height="173.622" x="26.575" y="23.031" rx="17.595" ry="14.164"/><rect style="fill:url(#linearGradient2794);fill-opacity:.74901998;fill-rule:evenodd;stroke:none;stroke-width:3.5262673;stroke-linecap:butt;stroke-linejoin:miter;stroke-miterlimit:4;stroke-opacity:1" id="rect2169" width="170.382" height="159.8" x="30.118" y="26.554" rx="17.595" ry="14.164"/><rect style="fill:url(#linearGradient3417);fill-opacity:.74901998;fill-rule:evenodd;stroke:none;stroke-width:3pt;stroke-linecap:butt;stroke-linejoin:miter;stroke-opacity:1" id="rect3416" width="163.397" height="149.2" x="31.955" y="31.699" rx="17.595" ry="14.164"/><path style="fill:#d1940c;fill-opacity:1;fill-rule:evenodd;stroke:none;stroke-width:8.8582678;stroke-linecap:butt;stroke-linejoin:miter;stroke-miterlimit:4;stroke-opacity:1" id="path4680" d="M 113.71875 29.531250 L 111.12500 35.406250 L 70.375000 126.96875 L 30.000000 108.31250 L 30.000000 118.06250 L 70.750000 136.90625 L 74.812500 138.78125 L 76.656250 134.68750 L 116.59375 44.906250 L 154.68750 82.875000 L 157.53125 85.687500 L 160.62500 83.156250 L 200.37500 50.781250 L 200.37500 40.750000 C 200.37500 40.323253 200.26421 39.916928 200.21875 39.500000 L 158.12500 73.781250 L 118.28125 34.062500 L 113.71875 29.531250 z"/><path style="fill:#83a67f;fill-opacity:1;fill-rule:evenodd;stroke:none;stroke-width:8.8582678;stroke-linecap:butt;stroke-linejoin:miter;stroke-miterlimit:4;stroke-opacity:1" id="path5302" d="M 198.75000 94.593750 L 156.81250 144.87500 L 117.37500 121.96875 L 114.28125 120.15625 L 111.87500 122.84375 L 72.343750 166.90625 L 31.312500 128.06250 L 30.000000 129.43750 L 30.000000 139.03125 L 69.562500 176.46875 L 72.875000 179.59375 L 75.906250 176.21875 L 116.06250 131.43750 L 155.59375 154.40625 L 158.81250 156.31250 L 161.21875 153.43750 L 200.37500 106.46875 L 200.37500 95.968750 L 198.75000 94.593750 z"/><rect style="fill:none;fill-opacity:.74901998;fill-rule:evenodd;stroke:#000;stroke-width:3.5262673;stroke-linecap:butt;stroke-linejoin:miter;stroke-miterlimit:4;stroke-opacity:1" id="rect5928" width="170.382" height="159.8" x="29.993" y="26.575" rx="17.595" ry="14.164"/></svg>