<svg xmlns="http://www.w3.org/2000/svg" xmlns:svg="http://www.w3.org/2000/svg" xmlns:xlink="http://www.w3.org/1999/xlink" id="svg1" width="241.89" height="226.772" version="1.1"><defs id="defs3"><linearGradient id="linearGradient4044"><stop style="stop-color:#fff;stop-opacity:0" id="stop4045" offset="0"/><stop style="stop-color:#363636;stop-opacity:.1875" id="stop4046" offset="1"/></linearGradient><linearGradient id="linearGradient3418"><stop style="stop-color:#f7f7f7;stop-opacity:1" id="stop3419" offset="0"/><stop style="stop-color:#dedede;stop-opacity:1" id="stop3420" offset="1"/></linearGradient><linearGradient id="linearGradient2791"><stop style="stop-color:#fbfbfb;stop-opacity:1" id="stop2792" offset="0"/><stop style="stop-color:#e9e9e9;stop-opacity:1" id="stop2793" offset="1"/></linearGradient><linearGradient id="linearGradient2794" x1=".497" x2=".491" y1=".058" y2=".961" xlink:href="#linearGradient2791"/><linearGradient id="linearGradient3417" x1=".538" x2=".533" y1=".013" y2=".981" xlink:href="#linearGradient3418"/><linearGradient id="linearGradient4043" x1=".497" x2=".497" y1=".013" y2=".994" xlink:href="#linearGradient4044"/><clipPath id="clip1"><path id="path3283" d="M 15.105469,190 62,190 l 0,45.67187 -46.894531,0 z"/></clipPath><clipPath id="clip2"><path id="path3286" d="M 15.105469,144 62,144 l 0,47 -46.894531,0 z"/></clipPath><clipPath id="clip3"><path id="path3289" d="M 15.105469,99 62,99 l 0,46 -46.894531,0 z"/></clipPath><clipPath id="clip4"><path id="path3292" d="M 15.105469,54 62,54 l 0,46 -46.894531,0 z"/></clipPath><clipPath id="clip5"><path id="path3295" d="M 15.105469,8.949219 62,8.949219 62,55 15.105469,55 z"/></clipPath><clipPath id="clip6"><path id="path3298" d="m 61,190 48,0 0,45.67187 -48,0 z"/></clipPath><clipPath id="clip7"><path id="path3301" d="m 61,8.949219 48,0 L 109,55 61,55 z"/></clipPath><clipPath id="clip8"><path id="path3304" d="m 108,190 47,0 0,45.67187 -47,0 z"/></clipPath><clipPath id="clip9"><path id="path3307" d="m 108,8.949219 47,0 L 155,55 108,55 z"/></clipPath><clipPath id="clip10"><path id="path3310" d="m 154,190 48,0 0,45.67187 -48,0 z"/></clipPath><clipPath id="clip11"><path id="path3313" d="m 154,8.949219 48,0 L 202,55 154,55 z"/></clipPath><clipPath id="clip12"><path id="path3316" d="m 201,190 47.16016,0 0,45.67187 -47.16016,0 z"/></clipPath><clipPath id="clip13"><path id="path3319" d="m 201,144 47.16016,0 0,47 L 201,191 z"/></clipPath><clipPath id="clip14"><path id="path3322" d="m 201,99 47.16016,0 0,46 L 201,145 z"/></clipPath><clipPath id="clip15"><path id="path3325" d="m 201,54 47.16016,0 0,46 L 201,100 z"/></clipPath><clipPath id="clip16"><path id="path3328" d="m 201,8.949219 47.16016,0 0,46.050781 L 201,55 z"/></clipPath><clipPath id="clipPath4169" clipPathUnits="userSpaceOnUse"><rect style="fill:none;stroke:#000;stroke-width:4.98070908;stroke-linecap:butt;stroke-linejoin:miter;stroke-miterlimit:4;stroke-opacity:1" id="rect4171" width="235.684" height="230.475" x="14.806" y="7.026" rx="24.338" ry="20.429"/></clipPath></defs><metadata id="metadata4"/><rect style="fill:url(#linearGradient4043);fill-opacity:.74901998;fill-rule:evenodd;stroke:none;stroke-width:3pt;stroke-linecap:butt;stroke-linejoin:miter;stroke-opacity:1" id="rect4047" width="184.252" height="177.157" x="23.031" y="23.04" rx="17.595" ry="14.164"/><rect style="fill:url(#linearGradient4043);fill-opacity:.74901998;fill-rule:evenodd;stroke:none;stroke-width:3pt;stroke-linecap:butt;stroke-linejoin:miter;stroke-opacity:1" id="rect3421" width="177.165" height="173.622" x="26.575" y="23.031" rx="17.595" ry="14.164"/><rect style="fill:url(#linearGradient2794);fill-opacity:.74901998;fill-rule:evenodd;stroke:none;stroke-width:3.5262673;stroke-linecap:butt;stroke-linejoin:miter;stroke-miterlimit:4;stroke-opacity:1" id="rect2169" width="170.382" height="159.8" x="30.118" y="26.554" rx="17.595" ry="14.164"/><rect style="fill:url(#linearGradient3417);fill-opacity:.74901998;fill-rule:evenodd;stroke:none;stroke-width:3pt;stroke-linecap:butt;stroke-linejoin:miter;stroke-opacity:1" id="rect3416" width="163.397" height="149.2" x="31.955" y="31.699" rx="17.595" ry="14.164"/><g id="g4173" transform="matrix(1,0,0,-1,0,213.01576)"><g id="g3539" clip-path="url(#clipPath4169)" transform="matrix(0.72292682,0,0,0.69335203,19.888757,21.703615)"><g id="g3333" clip-path="url(#clip1)" clip-rule="nonzero"><path id="path3335" d="m 15.105469,235.67187 46.609375,0 0,-45.34375 -46.609375,0 z" style="fill:#00f;fill-opacity:1;fill-rule:nonzero;stroke:none"/></g><g id="g3337" clip-path="url(#clip2)" clip-rule="nonzero"><path id="path3339" d="m 15.105469,190.32812 46.609375,0 0,-45.34375 -46.609375,0 z" style="fill:#00e3ff;fill-opacity:1;fill-rule:nonzero;stroke:none"/></g><g id="g3341" clip-path="url(#clip3)" clip-rule="nonzero"><path id="path3343" d="m 15.105469,144.98437 46.609375,0 0,-45.347651 -46.609375,0 z" style="fill:#0f3;fill-opacity:1;fill-rule:nonzero;stroke:none"/></g><g id="g3345" clip-path="url(#clip4)" clip-rule="nonzero"><path id="path3347" d="m 15.105469,99.636719 46.609375,0 0,-45.34375 -46.609375,0 z" style="fill:#57ff00;fill-opacity:1;fill-rule:nonzero;stroke:none"/></g><g id="g3349" clip-path="url(#clip5)" clip-rule="nonzero"><path id="path3351" d="m 15.105469,54.292969 46.609375,0 0,-45.34375 -46.609375,0 z" style="fill:#cf0;fill-opacity:1;fill-rule:nonzero;stroke:none"/></g><g id="g3353" clip-path="url(#clip6)" clip-rule="nonzero"><path id="path3355" d="m 61.714844,235.67187 46.613286,0 0,-45.34375 -46.613286,0 z" style="fill:#09f;fill-opacity:1;fill-rule:nonzero;stroke:none"/></g><path id="path3357" d="m 61.714844,190.32812 46.613286,0 0,-45.34375 -46.613286,0 z" style="fill:#00ff7f;fill-opacity:1;fill-rule:nonzero;stroke:none"/><path id="path3359" d="m 61.714844,144.98437 46.613286,0 0,-45.347651 -46.613286,0 z" style="fill:#3f0;fill-opacity:1;fill-rule:nonzero;stroke:none"/><path id="path3361" d="m 61.714844,99.636719 46.613286,0 0,-45.34375 -46.613286,0 z" style="fill:#a6ff00;fill-opacity:1;fill-rule:nonzero;stroke:none"/><g id="g3363" clip-path="url(#clip7)" clip-rule="nonzero"><path id="path3365" d="m 61.714844,54.292969 46.613286,0 0,-45.34375 -46.613286,0 z" style="fill:#ffe600;fill-opacity:1;fill-rule:nonzero;stroke:none"/></g><g id="g3367" clip-path="url(#clip8)" clip-rule="nonzero"><path id="path3369" d="m 108.32813,235.67187 46.60937,0 0,-45.34375 -46.60937,0 z" style="fill:#0fc;fill-opacity:1;fill-rule:nonzero;stroke:none"/></g><path id="path3371" d="m 108.32813,190.32812 46.60937,0 0,-45.34375 -46.60937,0 z" style="fill:#0cff00;fill-opacity:1;fill-rule:nonzero;stroke:none"/><path id="path3373" d="m 108.32813,144.98437 46.60937,0 0,-45.347651 -46.60937,0 z" style="fill:#7dff00;fill-opacity:1;fill-rule:nonzero;stroke:none"/><path id="path3375" d="m 108.32813,99.636719 46.60937,0 0,-45.34375 -46.60937,0 z" style="fill:#f0ff00;fill-opacity:1;fill-rule:nonzero;stroke:none"/><g id="g3377" clip-path="url(#clip9)" clip-rule="nonzero"><path id="path3379" d="m 108.32813,54.292969 46.60937,0 0,-45.34375 -46.60937,0 z" style="fill:#f90;fill-opacity:1;fill-rule:nonzero;stroke:none"/></g><g id="g3381" clip-path="url(#clip10)" clip-rule="nonzero"><path id="path3383" d="m 154.9375,235.67187 46.61328,0 0,-45.34375 -46.61328,0 z" style="fill:#0f3;fill-opacity:1;fill-rule:nonzero;stroke:none"/></g><path id="path3385" d="m 154.9375,190.32812 46.61328,0 0,-45.34375 -46.61328,0 z" style="fill:#57ff00;fill-opacity:1;fill-rule:nonzero;stroke:none"/><path id="path3387" d="m 154.9375,144.98437 46.61328,0 0,-45.347651 -46.61328,0 z" style="fill:#cf0;fill-opacity:1;fill-rule:nonzero;stroke:none"/><path id="path3389" d="m 154.9375,99.636719 46.61328,0 0,-45.34375 -46.61328,0 z" style="fill:#ffbd00;fill-opacity:1;fill-rule:nonzero;stroke:none"/><g id="g3391" clip-path="url(#clip11)" clip-rule="nonzero"><path id="path3393" d="m 154.9375,54.292969 46.61328,0 0,-45.34375 -46.61328,0 z" style="fill:#ff4a00;fill-opacity:1;fill-rule:nonzero;stroke:none"/></g><g id="g3395" clip-path="url(#clip12)" clip-rule="nonzero"><path id="path3397" d="m 201.55078,235.67187 46.60938,0 0,-45.34375 -46.60938,0 z" style="fill:#3f0;fill-opacity:1;fill-rule:nonzero;stroke:none"/></g><g id="g3399" clip-path="url(#clip13)" clip-rule="nonzero"><path id="path3401" d="m 201.55078,190.32812 46.60938,0 0,-45.34375 -46.60938,0 z" style="fill:#a6ff00;fill-opacity:1;fill-rule:nonzero;stroke:none"/></g><g id="g3403" clip-path="url(#clip14)" clip-rule="nonzero"><path id="path3405" d="m 201.55078,144.98437 46.60938,0 0,-45.347651 -46.60938,0 z" style="fill:#ffe300;fill-opacity:1;fill-rule:nonzero;stroke:none"/></g><g id="g3407" clip-path="url(#clip15)" clip-rule="nonzero"><path id="path3409" d="m 201.55078,99.636719 46.60938,0 0,-45.34375 -46.60938,0 z" style="fill:#ff7300;fill-opacity:1;fill-rule:nonzero;stroke:none"/></g><g id="g3411" clip-path="url(#clip16)" clip-rule="nonzero"><path id="path3413" d="m 201.55078,54.292969 46.60938,0 0,-45.34375 -46.60938,0 z" style="fill:red;fill-opacity:1;fill-rule:nonzero;stroke:none"/></g></g></g><rect style="fill:none;fill-opacity:.74901998;fill-rule:evenodd;stroke:#000;stroke-width:3.5262673;stroke-linecap:butt;stroke-linejoin:miter;stroke-miterlimit:4;stroke-opacity:1" id="rect5928" width="170.382" height="159.8" x="29.993" y="26.575" rx="17.595" ry="14.164"/><text style="font-size:32px;font-style:normal;font-weight:400;text-align:center;text-anchor:middle;fill:#000;fill-opacity:1;stroke:none;font-family:Liberation Serif" id="text2350" x="69.719" y="165.177" xml:space="preserve"><tspan id="tspan2352" x="69.719" y="165.177">XY</tspan></text></svg>