<svg xmlns="http://www.w3.org/2000/svg" xmlns:svg="http://www.w3.org/2000/svg" xmlns:xlink="http://www.w3.org/1999/xlink" id="svg1" width="241.89" height="226.772"><defs id="defs3"><linearGradient id="linearGradient4044"><stop style="stop-color:#fff;stop-opacity:0" id="stop4045" offset="0"/><stop style="stop-color:#363636;stop-opacity:.1875" id="stop4046" offset="1"/></linearGradient><linearGradient id="linearGradient3418"><stop style="stop-color:#f7f7f7;stop-opacity:1" id="stop3419" offset="0"/><stop style="stop-color:#dedede;stop-opacity:1" id="stop3420" offset="1"/></linearGradient><linearGradient id="linearGradient2791"><stop style="stop-color:#fbfbfb;stop-opacity:1" id="stop2792" offset="0"/><stop style="stop-color:#e9e9e9;stop-opacity:1" id="stop2793" offset="1"/></linearGradient><linearGradient id="linearGradient2794" x1=".497" x2=".491" y1=".058" y2=".961" xlink:href="#linearGradient2791"/><linearGradient id="linearGradient3417" x1=".538" x2=".533" y1=".013" y2=".981" xlink:href="#linearGradient3418"/><linearGradient id="linearGradient4043" x1=".497" x2=".497" y1=".013" y2=".994" xlink:href="#linearGradient4044"/></defs><metadata id="metadata4"/><rect style="fill:url(#linearGradient4043);fill-opacity:.74901998;fill-rule:evenodd;stroke:none;stroke-width:3pt;stroke-linecap:butt;stroke-linejoin:miter;stroke-opacity:1" id="rect4047" width="184.252" height="177.157" x="23.031" y="23.04" rx="17.595" ry="14.164"/><rect style="fill:url(#linearGradient4043);fill-opacity:.74901998;fill-rule:evenodd;stroke:none;stroke-width:3pt;stroke-linecap:butt;stroke-linejoin:miter;stroke-opacity:1" id="rect3421" width="177.165" height="173.622" x="26.575" y="23.031" rx="17.595" ry="14.164"/><rect style="fill:url(#linearGradient2794);fill-opacity:.74901998;fill-rule:evenodd;stroke:none;stroke-width:3.5262673;stroke-linecap:butt;stroke-linejoin:miter;stroke-miterlimit:4;stroke-opacity:1" id="rect2169" width="170.382" height="159.8" x="30.118" y="26.554" rx="17.595" ry="14.164"/><rect style="fill:url(#linearGradient3417);fill-opacity:.74901998;fill-rule:evenodd;stroke:none;stroke-width:3pt;stroke-linecap:butt;stroke-linejoin:miter;stroke-opacity:1" id="rect3416" width="163.397" height="149.2" x="31.955" y="31.699" rx="17.595" ry="14.164"/><rect style="fill:none;fill-opacity:.74901998;fill-rule:evenodd;stroke:#000;stroke-width:3.5262673;stroke-linecap:butt;stroke-linejoin:miter;stroke-miterlimit:4;stroke-opacity:1" id="rect5928" width="170.382" height="159.8" x="29.993" y="26.575" rx="17.595" ry="14.164"/><rect style="fill:#83a67f;fill-opacity:1;fill-rule:evenodd;stroke:#000;stroke-width:2.22874999;stroke-linecap:butt;stroke-linejoin:miter;stroke-miterlimit:4;stroke-dasharray:none;stroke-opacity:1" id="rect6928" width="21.34" height="38.227" x="64.361" y="-149.045" transform="matrix(0,1,-1,0,0,0)"/><rect style="fill:#83a67f;fill-opacity:1;fill-rule:evenodd;stroke:#000;stroke-width:2.22874999;stroke-linecap:butt;stroke-linejoin:miter;stroke-miterlimit:4;stroke-dasharray:none;stroke-opacity:1" id="rect6930" width="21.34" height="26.433" x="43.015" y="-137.251" transform="matrix(0,1,-1,0,0,0)"/><rect style="fill:#83a67f;fill-opacity:1;fill-rule:evenodd;stroke:#000;stroke-width:2.22874999;stroke-linecap:butt;stroke-linejoin:miter;stroke-miterlimit:4;stroke-dasharray:none;stroke-opacity:1" id="rect1771" width="21.34" height="56.876" x="85.7" y="-167.694" transform="matrix(0,1,-1,0,0,0)"/><rect style="fill:#83a67f;fill-opacity:1;fill-rule:evenodd;stroke:#000;stroke-width:2.22874999;stroke-linecap:butt;stroke-linejoin:miter;stroke-miterlimit:4;stroke-dasharray:none;stroke-opacity:1" id="rect1773" width="21.34" height="73.724" x="107.09" y="-184.542" transform="matrix(0,1,-1,0,0,0)"/><rect style="fill:#83a67f;fill-opacity:1;fill-rule:evenodd;stroke:#000;stroke-width:2.22874999;stroke-linecap:butt;stroke-linejoin:miter;stroke-miterlimit:4;stroke-dasharray:none;stroke-opacity:1" id="rect1774" width="21.34" height="36.362" x="128.379" y="-147.18" transform="matrix(0,1,-1,0,0,0)"/><rect style="fill:#83a67f;fill-opacity:1;fill-rule:evenodd;stroke:#000;stroke-width:2.22874999;stroke-linecap:butt;stroke-linejoin:miter;stroke-miterlimit:4;stroke-dasharray:none;stroke-opacity:1" id="rect1775" width="21.34" height="19.578" x="149.858" y="-130.396" transform="matrix(0,1,-1,0,0,0)"/><rect style="fill:#83a67f;fill-opacity:1;fill-rule:evenodd;stroke:#000;stroke-width:2.22874999;stroke-linecap:butt;stroke-linejoin:miter;stroke-miterlimit:4;stroke-dasharray:none;stroke-opacity:1" id="rect3919" width="21.42" height="35.392" x="64.441" y="75.129" transform="matrix(0,1,1,0,0,0)"/><rect style="fill:#83a67f;fill-opacity:1;fill-rule:evenodd;stroke:#000;stroke-width:2.22874999;stroke-linecap:butt;stroke-linejoin:miter;stroke-miterlimit:4;stroke-dasharray:none;stroke-opacity:1" id="rect3921" width="20.835" height="40.728" x="42.94" y="69.725" transform="matrix(0,1,1,0,0,0)"/><rect style="fill:#83a67f;fill-opacity:1;fill-rule:evenodd;stroke:#000;stroke-width:2.22874999;stroke-linecap:butt;stroke-linejoin:miter;stroke-miterlimit:4;stroke-dasharray:none;stroke-opacity:1" id="rect3923" width="21.584" height="44.563" x="85.475" y="66.041" transform="matrix(0,1,1,0,0,0)"/><rect style="fill:#83a67f;fill-opacity:1;fill-rule:evenodd;stroke:#000;stroke-width:2.22874999;stroke-linecap:butt;stroke-linejoin:miter;stroke-miterlimit:4;stroke-dasharray:none;stroke-opacity:1" id="rect3925" width="21.992" height="35.805" x="107.11" y="74.778" transform="matrix(0,1,1,0,0,0)"/><rect style="fill:#83a67f;fill-opacity:1;fill-rule:evenodd;stroke:#000;stroke-width:2.22874999;stroke-linecap:butt;stroke-linejoin:miter;stroke-miterlimit:4;stroke-dasharray:none;stroke-opacity:1" id="rect3927" width="20.646" height="64.597" x="128.623" y="46.063" transform="matrix(0,1,1,0,0,0)"/><rect style="fill:#83a67f;fill-opacity:1;fill-rule:evenodd;stroke:#000;stroke-width:2.22874999;stroke-linecap:butt;stroke-linejoin:miter;stroke-miterlimit:4;stroke-dasharray:none;stroke-opacity:1" id="rect3929" width="21.04" height="25.558" x="150.128" y="84.774" transform="matrix(0,1,1,0,0,0)"/><path style="fill:none;fill-opacity:.75;fill-rule:evenodd;stroke:#000;stroke-width:2.5625;stroke-linecap:butt;stroke-linejoin:miter;stroke-miterlimit:4;stroke-dasharray:none;stroke-opacity:1" id="path3931" d="M 111.23074,32.727694 L 111.23074,181.62893"/></svg>