<svg xmlns="http://www.w3.org/2000/svg" xmlns:svg="http://www.w3.org/2000/svg" xmlns:xlink="http://www.w3.org/1999/xlink" id="svg1" width="241.89" height="226.772"><defs id="defs3"><linearGradient id="linearGradient4044"><stop style="stop-color:#fff;stop-opacity:0" id="stop4045" offset="0"/><stop style="stop-color:#363636;stop-opacity:.1875" id="stop4046" offset="1"/></linearGradient><linearGradient id="linearGradient3418"><stop style="stop-color:#f7f7f7;stop-opacity:1" id="stop3419" offset="0"/><stop style="stop-color:#dedede;stop-opacity:1" id="stop3420" offset="1"/></linearGradient><linearGradient id="linearGradient2791"><stop style="stop-color:#fbfbfb;stop-opacity:1" id="stop2792" offset="0"/><stop style="stop-color:#e9e9e9;stop-opacity:1" id="stop2793" offset="1"/></linearGradient><linearGradient id="linearGradient2794" x1=".497" x2=".491" y1=".058" y2=".961" xlink:href="#linearGradient2791"/><linearGradient id="linearGradient3417" x1="114.61" x2="113.686" y1="35.201" y2="186.269" gradientTransform="scale(1.046497,0.955569)" gradientUnits="userSpaceOnUse" xlink:href="#linearGradient3418"/><linearGradient id="linearGradient4043" x1=".497" x2=".497" y1=".013" y2=".994" xlink:href="#linearGradient4044"/></defs><metadata id="metadata4"/><rect style="fill:url(#linearGradient4043);fill-opacity:1;fill-rule:evenodd;stroke:none;stroke-width:3pt;stroke-linecap:butt;stroke-linejoin:miter;stroke-opacity:1" id="rect4047" width="184.252" height="177.157" x="23.031" y="23.04" rx="17.595" ry="14.164"/><rect style="fill:url(#linearGradient4043);fill-opacity:1;fill-rule:evenodd;stroke:none;stroke-width:3pt;stroke-linecap:butt;stroke-linejoin:miter;stroke-opacity:1" id="rect3421" width="177.165" height="173.622" x="26.575" y="23.031" rx="17.595" ry="14.164"/><rect style="fill:url(#linearGradient2794);fill-opacity:1;fill-rule:evenodd;stroke:none;stroke-width:3.5262673;stroke-linecap:butt;stroke-linejoin:miter;stroke-miterlimit:4;stroke-opacity:1" id="rect2169" width="170.382" height="159.8" x="30.118" y="26.554" rx="17.595" ry="14.164"/><rect style="fill:url(#linearGradient3417);fill-opacity:1;fill-rule:evenodd;stroke:none;stroke-width:3pt;stroke-linecap:butt;stroke-linejoin:miter;stroke-opacity:1" id="rect3416" width="163.397" height="149.2" x="31.955" y="31.923" rx="17.595" ry="14.164"/><rect style="fill:none;fill-opacity:1;fill-rule:evenodd;stroke:#000;stroke-width:3.53;stroke-linecap:butt;stroke-linejoin:miter;stroke-miterlimit:4;stroke-opacity:1;stroke-dasharray:none" id="rect5928" width="170.382" height="159.8" x="29.993" y="26.575" rx="17.595" ry="14.164"/><path style="fill:none;fill-opacity:1;fill-rule:evenodd;stroke:#000;stroke-width:2.69489455;stroke-linecap:butt;stroke-linejoin:miter;stroke-miterlimit:4;stroke-opacity:1" id="path1738" d="M 79.362875,160.55633 L 79.362875,74.029901"/><rect style="fill:#d1940c;fill-opacity:1;fill-rule:evenodd;stroke:#000;stroke-width:2.02077103;stroke-linecap:butt;stroke-linejoin:miter;stroke-miterlimit:4;stroke-opacity:1" id="rect6929" width="36.957" height="24.344" x="60.885" y="93.278"/><path style="fill:none;fill-opacity:1;fill-rule:evenodd;stroke:#000;stroke-width:3.46342373;stroke-linecap:butt;stroke-linejoin:miter;stroke-miterlimit:4;stroke-opacity:1" id="path1111" d="M 61.544015,103.41026 L 97.181735,103.16922"/><path style="fill:none;fill-opacity:1;fill-rule:evenodd;stroke:#000;stroke-width:3.43961835;stroke-linecap:butt;stroke-linejoin:miter;stroke-miterlimit:4;stroke-opacity:1" id="path1735" d="M 66.974295,160.282 L 91.751455,160.01785"/><path style="fill:none;fill-opacity:1;fill-rule:evenodd;stroke:#000;stroke-width:3.4396174;stroke-linecap:butt;stroke-linejoin:miter;stroke-miterlimit:4;stroke-opacity:1" id="path1736" d="M 66.915207,74.335734 L 91.810544,74.07159"/><path style="fill:none;fill-opacity:1;fill-rule:evenodd;stroke:#000;stroke-width:3.43961787;stroke-linecap:butt;stroke-linejoin:miter;stroke-miterlimit:4;stroke-opacity:1" id="path2363" d="M 153.99804,142.70132 L 153.99804,33.039444"/><rect style="fill:#83a67f;fill-opacity:1;fill-rule:evenodd;stroke:#000;stroke-width:3.43961835;stroke-linecap:butt;stroke-linejoin:miter;stroke-miterlimit:4;stroke-opacity:1" id="rect6930" width="35.439" height="50.084" x="136.278" y="63.09"/><path style="fill:none;fill-opacity:1;fill-rule:evenodd;stroke:#000;stroke-width:3.43961716;stroke-linecap:butt;stroke-linejoin:miter;stroke-miterlimit:4;stroke-opacity:1" id="path1733" d="M 137.08128,86.726999 L 170.9148,86.462855"/><path style="fill:none;fill-opacity:1;fill-rule:evenodd;stroke:#000;stroke-width:3.43961763;stroke-linecap:butt;stroke-linejoin:miter;stroke-miterlimit:4;stroke-opacity:1" id="path1734" d="M 141.52824,143.48936 L 166.46784,143.22522"/><path style="fill:none;fill-opacity:1;fill-rule:evenodd;stroke:#000;stroke-width:3.43961835;stroke-linecap:butt;stroke-linejoin:miter;stroke-miterlimit:4;stroke-opacity:1" id="path1737" d="M 141.48822,33.039444 L 166.50786,32.7753"/><path style="fill:#f9940c;fill-opacity:1;fill-rule:evenodd;stroke:#000;stroke-width:1pt;stroke-linecap:butt;stroke-linejoin:miter;stroke-opacity:1" id="path2431" d="M 6.204072,55.362526 A 3.102036,3.102036 0 1 1 0,55.362526 A 3.102036,3.102036 0 1 1 6.204072,55.362526 z" transform="translate(76.260839,3.8122305)"/><path style="fill:#000;fill-opacity:0;fill-rule:evenodd;stroke:#000;stroke-width:1pt;stroke-linecap:butt;stroke-linejoin:miter;stroke-opacity:1" id="path2464" d="M 6.204072,55.362526 A 3.102036,3.102036 0 1 1 0,55.362526 A 3.102036,3.102036 0 1 1 6.204072,55.362526 z" transform="translate(76.260839,-18.875228)"/><path style="fill:#83a67f;fill-opacity:1;fill-rule:evenodd;stroke:#000;stroke-width:1pt;stroke-linecap:butt;stroke-linejoin:miter;stroke-opacity:1" id="path3236" d="M 6.204072,55.362526 A 3.102036,3.102036 0 1 1 0,55.362526 A 3.102036,3.102036 0 1 1 6.204072,55.362526 z" transform="translate(150.896,113.95586)"/><path style="fill:#f9940c;fill-opacity:1;fill-rule:evenodd;stroke:#000;stroke-width:1pt;stroke-linecap:butt;stroke-linejoin:miter;stroke-opacity:1" id="path3238" d="M 6.204072,55.362526 A 3.102036,3.102036 0 1 1 0,55.362526 A 3.102036,3.102036 0 1 1 6.204072,55.362526 z" transform="translate(76.260839,119.5899)"/></svg>