<svg xmlns="http://www.w3.org/2000/svg" xmlns:cc="http://web.resource.org/cc/" xmlns:svg="http://www.w3.org/2000/svg" xmlns:xlink="http://www.w3.org/1999/xlink" id="svg1" width="241.89" height="226.772"><defs id="defs3"><linearGradient id="linearGradient4044"><stop style="stop-color:#fff;stop-opacity:0" id="stop4045" offset="0"/><stop style="stop-color:#363636;stop-opacity:.1875" id="stop4046" offset="1"/></linearGradient><linearGradient id="linearGradient3418"><stop style="stop-color:#f7f7f7;stop-opacity:1" id="stop3419" offset="0"/><stop style="stop-color:#dedede;stop-opacity:1" id="stop3420" offset="1"/></linearGradient><linearGradient id="linearGradient2791"><stop style="stop-color:#fbfbfb;stop-opacity:1" id="stop2792" offset="0"/><stop style="stop-color:#e9e9e9;stop-opacity:1" id="stop2793" offset="1"/></linearGradient><linearGradient id="linearGradient2794" x1=".497" x2=".491" y1=".058" y2=".961" xlink:href="#linearGradient2791"/><linearGradient id="linearGradient3417" x1=".538" x2=".533" y1=".013" y2=".981" xlink:href="#linearGradient3418"/><linearGradient id="linearGradient4043" x1=".497" x2=".497" y1=".013" y2=".994" xlink:href="#linearGradient4044"/></defs><metadata id="metadata4"/><rect style="fill:url(#linearGradient4043);fill-opacity:.74901998;fill-rule:evenodd;stroke:none;stroke-width:3pt;stroke-linecap:butt;stroke-linejoin:miter;stroke-opacity:1" id="rect4047" width="184.252" height="177.157" x="23.031" y="23.04" rx="17.595" ry="14.164"/><rect style="fill:url(#linearGradient4043);fill-opacity:.74901998;fill-rule:evenodd;stroke:none;stroke-width:3pt;stroke-linecap:butt;stroke-linejoin:miter;stroke-opacity:1" id="rect3421" width="177.165" height="173.622" x="26.575" y="23.031" rx="17.595" ry="14.164"/><rect style="fill:url(#linearGradient2794);fill-opacity:.74901998;fill-rule:evenodd;stroke:none;stroke-width:3.5262673;stroke-linecap:butt;stroke-linejoin:miter;stroke-miterlimit:4;stroke-opacity:1" id="rect2169" width="170.382" height="159.8" x="30.118" y="26.554" rx="17.595" ry="14.164"/><rect style="fill:url(#linearGradient3417);fill-opacity:.74901998;fill-rule:evenodd;stroke:none;stroke-width:3pt;stroke-linecap:butt;stroke-linejoin:miter;stroke-opacity:1" id="rect3416" width="163.397" height="149.2" x="31.955" y="31.699" rx="17.595" ry="14.164"/><rect style="fill:none;fill-opacity:.74901998;fill-rule:evenodd;stroke:#000;stroke-width:3.5262673;stroke-linecap:butt;stroke-linejoin:miter;stroke-miterlimit:4;stroke-opacity:1" id="rect5928" width="170.382" height="159.8" x="29.993" y="26.575" rx="17.595" ry="14.164"/><rect style="fill:#43ff00;fill-opacity:1;fill-rule:evenodd;stroke:none;stroke-width:3pt;stroke-linecap:butt;stroke-linejoin:miter;stroke-opacity:1" id="rect6060" width="21.26" height="21.26" x="62.008" y="143.504" rx="0"/><rect style="fill:#f7ff00;fill-opacity:1;fill-rule:evenodd;stroke:none;stroke-width:3pt;stroke-linecap:butt;stroke-linejoin:miter;stroke-opacity:1" id="rect6146" width="21.26" height="21.26" x="104.528" y="30.118" rx="0"/><rect style="fill:#ffa600;fill-opacity:1;fill-rule:evenodd;stroke:none;stroke-width:3pt;stroke-linecap:butt;stroke-linejoin:miter;stroke-opacity:1" id="rect6147" width="21.26" height="21.26" x="147.047" y="93.898" rx="0"/><rect style="fill:#90ff00;fill-opacity:1;fill-rule:evenodd;stroke:none;stroke-width:3pt;stroke-linecap:butt;stroke-linejoin:miter;stroke-opacity:1" id="rect6148" width="21.26" height="21.26" x="189.567" y="33.661" rx="0"/><rect style="fill:#ff2000;fill-opacity:1;fill-rule:evenodd;stroke:none;stroke-width:3pt;stroke-linecap:butt;stroke-linejoin:miter;stroke-opacity:1" id="rect6149" width="21.26" height="21.26" x="19.488" y="157.677" rx="0"/><path style="fill:#0000fc;fill-opacity:1" id="path1978" d="M 40.813291 104.51048 A 10.662551 10.763945 0 1 1 19.488189,104.51048 A 10.662551 10.763945 0 1 1 40.813291 104.51048 z"/><path style="fill:#0ff;fill-opacity:1" id="path1980" d="M 40.813291 104.51048 A 10.662551 10.763945 0 1 1 19.488189,104.51048 A 10.662551 10.763945 0 1 1 40.813291 104.51048 z" transform="translate(42.51969,-42.63664)"/><path style="fill:#ff6200;fill-opacity:1" id="path1984" d="M 40.813291 104.51048 A 10.662551 10.763945 0 1 1 19.488189,104.51048 A 10.662551 10.763945 0 1 1 40.813291 104.51048 z" transform="translate(127.4938,23.43357)"/><path style="fill:#0f0;fill-opacity:1" id="path1986" d="M 40.813291 104.51048 A 10.662551 10.763945 0 1 1 19.488189,104.51048 A 10.662551 10.763945 0 1 1 40.813291 104.51048 z" transform="translate(170.0787,45.94604)"/><path style="fill:#ff0;fill-opacity:1" id="path1988" d="M 40.813291 104.51048 A 10.662551 10.763945 0 1 1 19.488189,104.51048 A 10.662551 10.763945 0 1 1 40.813291 104.51048 z" transform="translate(85.03937,60.11927)"/></svg>