<svg width="109.6" height="109.6" viewBox="0 0 82.2 82.2" xml:space="preserve"><g id="Layer_x0020_1" style="fill-rule:nonzero;clip-rule:nonzero;stroke:#000;stroke-miterlimit:4"><linearGradient id="aigrd1" x1="19.633" x2="69.42" y1="17.548" y2="72.169" gradientUnits="userSpaceOnUse"><stop offset="0" style="stop-color:#936"/><stop offset="1" style="stop-color:#7a2952"/></linearGradient><path style="fill:url(#aigrd1)" d="M81.7,41.1c0,22.4-18.2,40.6-40.6,40.6S0.5,63.5,0.5,41.1S18.7,0.5,41.1,0.5s40.6,18.2,40.6,40.6z"/><linearGradient id="aigrd2" x1="21.637" x2="81.574" y1="49.536" y2="88.689" gradientUnits="userSpaceOnUse"><stop offset="0" style="stop-color:#99f"/><stop offset="1" style="stop-color:#9968ff"/></linearGradient><path style="fill:url(#aigrd2);stroke:none" d="M41.1,41.1L23.2,77.5c5.4,2.7,11.5,4.2,17.9,4.2c16,0,29.8-9.2,36.4-22.7L41.1,41.1z"/><linearGradient id="aigrd3" x1="10.77" x2="43.64" y1="32.389" y2="81.21" gradientUnits="userSpaceOnUse"><stop offset="0" style="stop-color:#ffc"/><stop offset=".989" style="stop-color:#ffffb8"/></linearGradient><path style="fill:url(#aigrd3);stroke:none" d="M41.1,41.1l-40.6,0c0,16,9.2,29.8,22.7,36.4l17.9-36.4z"/></g></svg>