<svg xmlns="http://www.w3.org/2000/svg" xmlns:cc="http://web.resource.org/cc/" xmlns:xlink="http://www.w3.org/1999/xlink" id="svg1" width="241.89" height="226.772"><defs id="defs3"><linearGradient id="linearGradient4044"><stop style="stop-color:#fff;stop-opacity:0" id="stop4045" offset="0"/><stop style="stop-color:#363636;stop-opacity:.1875" id="stop4046" offset="1"/></linearGradient><linearGradient id="linearGradient3418"><stop style="stop-color:#f7f7f7;stop-opacity:1" id="stop3419" offset="0"/><stop style="stop-color:#dedede;stop-opacity:1" id="stop3420" offset="1"/></linearGradient><linearGradient id="linearGradient2791"><stop style="stop-color:#fbfbfb;stop-opacity:1" id="stop2792" offset="0"/><stop style="stop-color:#e9e9e9;stop-opacity:1" id="stop2793" offset="1"/></linearGradient><linearGradient id="linearGradient2794" x1=".497" x2=".491" y1=".058" y2=".961" xlink:href="#linearGradient2791"/><linearGradient id="linearGradient3417" x1=".538" x2=".533" y1=".013" y2=".981" xlink:href="#linearGradient3418"/><linearGradient id="linearGradient4043" x1=".497" x2=".497" y1=".013" y2=".994" xlink:href="#linearGradient4044"/></defs><metadata id="metadata4"/><rect style="fill:url(#linearGradient4043);fill-opacity:.74901998;fill-rule:evenodd;stroke:none;stroke-width:3pt;stroke-linecap:butt;stroke-linejoin:miter;stroke-opacity:1" id="rect4047" width="184.252" height="177.157" x="23.031" y="23.04" rx="17.595" ry="14.164"/><rect style="fill:url(#linearGradient4043);fill-opacity:.74901998;fill-rule:evenodd;stroke:none;stroke-width:3pt;stroke-linecap:butt;stroke-linejoin:miter;stroke-opacity:1" id="rect3421" width="177.165" height="173.622" x="26.575" y="23.031" rx="17.595" ry="14.164"/><rect style="fill:url(#linearGradient2794);fill-opacity:.74901998;fill-rule:evenodd;stroke:none;stroke-width:3.5262673;stroke-linecap:butt;stroke-linejoin:miter;stroke-miterlimit:4;stroke-opacity:1" id="rect2169" width="170.382" height="159.8" x="30.118" y="26.554" rx="17.595" ry="14.164"/><rect style="fill:url(#linearGradient3417);fill-opacity:.74901998;fill-rule:evenodd;stroke:none;stroke-width:3pt;stroke-linecap:butt;stroke-linejoin:miter;stroke-opacity:1" id="rect3416" width="163.397" height="149.2" x="31.955" y="31.699" rx="17.595" ry="14.164"/><rect style="fill:none;fill-opacity:.74901998;fill-rule:evenodd;stroke:#000;stroke-width:3.5262673;stroke-linecap:butt;stroke-linejoin:miter;stroke-miterlimit:4;stroke-opacity:1" id="rect5928" width="170.382" height="159.8" x="29.993" y="26.575" rx="17.595" ry="14.164"/><path style="fill:none;fill-opacity:1;fill-rule:evenodd;stroke:#83a67f;stroke-width:6.375;stroke-linecap:butt;stroke-linejoin:miter;stroke-opacity:1" id="path6293" d="M -18.851812,33.928311 C -4.0899124,33.701211 8.4008876,48.463111 2.2689876,64.814711" transform="matrix(2.189392,0.000000,0.000000,2.189392,156.8993,-17.98082)"/><path style="fill:none;fill-opacity:1;fill-rule:evenodd;stroke:#83a67f;stroke-width:6.625;stroke-linecap:butt;stroke-linejoin:miter;stroke-opacity:1" id="path6294" d="M -18.965322,40.514381 C -8.4049224,40.627881 -2.6137224,49.257881 -2.8409224,56.752481" transform="matrix(2.189392,0.000000,0.000000,2.189392,156.8993,-17.98082)"/><path style="fill:none;fill-opacity:1;fill-rule:evenodd;stroke:#d1940c;stroke-width:6.125001;stroke-linecap:butt;stroke-linejoin:miter;stroke-opacity:1" id="path6295" d="M 2.1531476,65.040338 C -4.3549724,82.018432 -26.394892,84.085088 -36.867860,70.929045" transform="matrix(2.189392,0.000000,0.000000,2.189392,156.8993,-17.98082)"/><path style="fill:none;fill-opacity:1;fill-rule:evenodd;stroke:#d1940c;stroke-width:6.750001;stroke-linecap:butt;stroke-linejoin:miter;stroke-opacity:1" id="path6296" d="M -2.8432824,56.864535 C -2.9923624,67.029434 -12.995672,76.136349 -25.399002,71.837511" transform="matrix(2.189392,0.000000,0.000000,2.189392,156.8993,-17.98082)"/><path style="fill:none;fill-opacity:1;fill-rule:evenodd;stroke:#c5d2c8;stroke-width:6.500001;stroke-linecap:butt;stroke-linejoin:miter;stroke-opacity:1" id="path6297" d="M -37.249786,70.718022 C -48.413587,56.128328 -38.204450,33.667577 -19.267192,33.910796" transform="matrix(2.189392,0.000000,0.000000,2.189392,156.8993,-17.98082)"/><path style="fill:none;fill-opacity:1;fill-rule:evenodd;stroke:#c5d2c8;stroke-width:6.500001;stroke-linecap:butt;stroke-linejoin:miter;stroke-opacity:1" id="path6298" d="M -19.194882,40.626460 C -26.423212,40.939680 -32.683892,45.210317 -34.649442,52.883920 C -36.594531,60.591196 -33.050873,68.536437 -25.512522,71.610460" transform="matrix(2.189392,0.000000,0.000000,2.189392,156.8993,-17.98082)"/><path style="font-size:12;fill:none;fill-opacity:1;fill-rule:evenodd;stroke:#000;stroke-width:.80919887;stroke-miterlimit:4;stroke-dasharray:none" id="path157" d="M -0.56981237,63.679111 L 5.1077876,65.950211 M -34.295014,68.902611 L -39.291414,72.877011 M -18.965412,44.148111 L -18.965412,30.975911 M 6.9248876,56.752511 C 6.9248876,71.043911 -4.6739124,82.642711 -18.965312,82.642711 C -33.256614,82.642711 -44.855514,71.043911 -44.855514,56.752511 C -44.855514,42.461111 -33.256614,30.862411 -18.965312,30.862411 C -4.6739124,30.862411 6.9248876,42.461111 6.9248876,56.752511 z M 0.79308763,56.752511 C 0.79308763,67.659111 -8.0586124,76.510911 -18.965212,76.510911 C -29.871814,76.510911 -38.723514,67.659111 -38.723514,56.752511 C -38.723514,45.846011 -29.871814,36.994311 -18.965212,36.994311 C -8.0586124,36.994311 0.79308763,45.846011 0.79308763,56.752511 z" transform="matrix(2.189392,0.000000,0.000000,2.189392,156.8993,-17.98082)"/><path style="font-size:12;fill:none;fill-rule:evenodd;stroke:#000;stroke-width:.80919887;stroke-miterlimit:4;stroke-dasharray:none" id="path6300" d="M -18.965412,36.994211 L -18.965412,44.034511 M -6.2475124,56.865911 L 0.79278763,56.866011 M -23.848212,68.221211 L -26.914112,75.148011 M 0.79278763,56.752411 C 0.79278763,67.659011 -8.0588124,76.510611 -18.965412,76.510611 C -29.871914,76.510611 -38.723714,67.659011 -38.723714,56.752411 C -38.723714,45.845911 -29.871914,36.994211 -18.965412,36.994211 C -8.0588124,36.994211 0.79278763,45.845911 0.79278763,56.752411 z M -6.2475124,56.752411 C -6.2475124,63.772711 -11.945112,69.470311 -18.965412,69.470311 C -25.985712,69.470311 -31.683414,63.772711 -31.683414,56.752411 C -31.683414,49.732111 -25.985712,44.034511 -18.965412,44.034511 C -11.945112,44.034511 -6.2475124,49.732111 -6.2475124,56.752411 z" transform="matrix(2.189392,0.000000,0.000000,2.189392,156.8993,-17.98082)"/></svg>