<svg xmlns="http://www.w3.org/2000/svg" xmlns:cc="http://web.resource.org/cc/" xmlns:xlink="http://www.w3.org/1999/xlink" id="svg1" width="241.89" height="226.772"><defs id="defs3"><linearGradient id="linearGradient4044"><stop style="stop-color:#fff;stop-opacity:0" id="stop4045" offset="0"/><stop style="stop-color:#363636;stop-opacity:.1875" id="stop4046" offset="1"/></linearGradient><linearGradient id="linearGradient3418"><stop style="stop-color:#f7f7f7;stop-opacity:1" id="stop3419" offset="0"/><stop style="stop-color:#dedede;stop-opacity:1" id="stop3420" offset="1"/></linearGradient><linearGradient id="linearGradient2791"><stop style="stop-color:#fbfbfb;stop-opacity:1" id="stop2792" offset="0"/><stop style="stop-color:#e9e9e9;stop-opacity:1" id="stop2793" offset="1"/></linearGradient><linearGradient id="linearGradient2794" x1=".497" x2=".491" y1=".058" y2=".961" xlink:href="#linearGradient2791"/><linearGradient id="linearGradient3417" x1=".538" x2=".533" y1=".013" y2=".981" xlink:href="#linearGradient3418"/><linearGradient id="linearGradient4043" x1=".497" x2=".497" y1=".013" y2=".994" xlink:href="#linearGradient4044"/></defs><metadata id="metadata4"/><rect style="fill:url(#linearGradient4043);fill-opacity:.74901998;fill-rule:evenodd;stroke:none;stroke-width:3pt;stroke-linecap:butt;stroke-linejoin:miter;stroke-opacity:1" id="rect4047" width="184.252" height="177.157" x="23.031" y="23.04" rx="17.595" ry="14.164"/><rect style="fill:url(#linearGradient4043);fill-opacity:.74901998;fill-rule:evenodd;stroke:none;stroke-width:3pt;stroke-linecap:butt;stroke-linejoin:miter;stroke-opacity:1" id="rect3421" width="177.165" height="173.622" x="26.575" y="23.031" rx="17.595" ry="14.164"/><rect style="fill:url(#linearGradient2794);fill-opacity:.74901998;fill-rule:evenodd;stroke:none;stroke-width:3.5262673;stroke-linecap:butt;stroke-linejoin:miter;stroke-miterlimit:4;stroke-opacity:1" id="rect2169" width="170.382" height="159.8" x="30.118" y="26.554" rx="17.595" ry="14.164"/><rect style="fill:url(#linearGradient3417);fill-opacity:.74901998;fill-rule:evenodd;stroke:none;stroke-width:3pt;stroke-linecap:butt;stroke-linejoin:miter;stroke-opacity:1" id="rect3416" width="163.397" height="149.2" x="31.955" y="31.699" rx="17.595" ry="14.164"/><rect style="fill:none;fill-opacity:.74901998;fill-rule:evenodd;stroke:#000;stroke-width:3.5262673;stroke-linecap:butt;stroke-linejoin:miter;stroke-miterlimit:4;stroke-opacity:1" id="rect5928" width="170.382" height="159.8" x="29.993" y="26.575" rx="17.595" ry="14.164"/><path style="font-size:12;fill:none;fill-opacity:1;fill-rule:evenodd;stroke:#000;stroke-width:1.6243682" id="path6470" d="M 155.04923,121.56082 L 167.34590,126.47962 M 82.006367,132.87401 L 71.185042,141.48186 M 115.20759,79.260101 L 115.20759,50.731431 M 171.28142,106.55901 C 171.28142,137.51168 146.16047,162.63265 115.20780,162.63265 C 84.255359,162.63265 59.134179,137.51168 59.134179,106.55901 C 59.134179,75.606355 84.255359,50.485609 115.20780,50.485609 C 146.16047,50.485609 171.28142,75.606355 171.28142,106.55901 z M 158.00102,106.55901 C 158.00102,130.18080 138.82981,149.35224 115.20802,149.35224 C 91.586240,149.35224 72.415013,130.18080 72.415013,106.55901 C 72.415013,82.937454 91.586240,63.766227 115.20802,63.766227 C 138.82981,63.766227 158.00102,82.937454 158.00102,106.55901 z"/><path style="font-size:12;fill:none;fill-rule:evenodd;stroke:#000;stroke-width:1.6243682" id="path149" d="M 115.20792,63.766340 L 115.20792,79.014392 M 142.75266,106.80495 L 158.00072,106.80517 M 104.63264,131.39853 L 97.992427,146.40077 M 158.00072,106.55913 C 158.00072,130.18091 138.82970,149.35192 115.20792,149.35192 C 91.586353,149.35192 72.414910,130.18091 72.414910,106.55913 C 72.414910,82.937566 91.586353,63.766340 115.20792,63.766340 C 138.82970,63.766340 158.00072,82.937566 158.00072,106.55913 z M 142.75266,106.55913 C 142.75266,121.76386 130.41266,134.10387 115.20792,134.10387 C 100.00318,134.10387 87.662962,121.76386 87.662962,106.55913 C 87.662962,91.354393 100.00318,79.014392 115.20792,79.014392 C 130.41266,79.014392 142.75266,91.354393 142.75266,106.55913 z"/><path style="font-size:12;fill:#c5d2c8;fill-opacity:1;fill-rule:evenodd;stroke:#000;stroke-width:.74652702;stroke-opacity:1" id="path113" d="M 28.807579,46.456982 A 15.457470,15.457470 0 0 1 35.108841,16.884708 L 35.108826,32.342178 z" transform="matrix(3.626499,0.000000,0.000000,3.626499,-12.11427,-10.72977)"/><path style="font-size:12;fill:#d1940c;fill-opacity:1;fill-rule:evenodd;stroke:#000;stroke-width:.74652702;stroke-opacity:1" id="path114" d="M 50.566090,32.421815 A 15.457470,15.457470 0 0 1 28.760584,46.435907 L 35.108826,32.342178 z" transform="matrix(3.626499,0.000000,0.000000,3.626499,-12.11427,-10.72977)"/><path style="font-size:12;fill:#83a67f;fill-opacity:1;fill-rule:evenodd;stroke:#000;stroke-width:.74652702;stroke-opacity:1" id="path115" d="M 35.062840,16.884777 A 15.457470,15.457470 0 0 1 50.565268,32.520394 L 35.108826,32.342178 z" transform="matrix(3.626499,0.000000,0.000000,3.626499,-12.11427,-10.72977)"/></svg>