<svg xmlns="http://www.w3.org/2000/svg" xmlns:cc="http://web.resource.org/cc/" xmlns:xlink="http://www.w3.org/1999/xlink" id="svg1" width="241.89" height="226.772"><defs id="defs3"><linearGradient id="linearGradient4044"><stop style="stop-color:#fff;stop-opacity:0" id="stop4045" offset="0"/><stop style="stop-color:#363636;stop-opacity:.1875" id="stop4046" offset="1"/></linearGradient><linearGradient id="linearGradient3418"><stop style="stop-color:#f7f7f7;stop-opacity:1" id="stop3419" offset="0"/><stop style="stop-color:#dedede;stop-opacity:1" id="stop3420" offset="1"/></linearGradient><linearGradient id="linearGradient2791"><stop style="stop-color:#fbfbfb;stop-opacity:1" id="stop2792" offset="0"/><stop style="stop-color:#e9e9e9;stop-opacity:1" id="stop2793" offset="1"/></linearGradient><linearGradient id="linearGradient2794" x1=".497" x2=".491" y1=".058" y2=".961" xlink:href="#linearGradient2791"/><linearGradient id="linearGradient3417" x1=".538" x2=".533" y1=".013" y2=".981" xlink:href="#linearGradient3418"/><linearGradient id="linearGradient4043" x1=".497" x2=".497" y1=".013" y2=".994" xlink:href="#linearGradient4044"/></defs><metadata id="metadata4"/><rect style="fill:url(#linearGradient4043);fill-opacity:.74901998;fill-rule:evenodd;stroke:none;stroke-width:3pt;stroke-linecap:butt;stroke-linejoin:miter;stroke-opacity:1" id="rect4047" width="184.252" height="177.157" x="23.031" y="23.04" rx="17.595" ry="14.164"/><rect style="fill:url(#linearGradient4043);fill-opacity:.74901998;fill-rule:evenodd;stroke:none;stroke-width:3pt;stroke-linecap:butt;stroke-linejoin:miter;stroke-opacity:1" id="rect3421" width="177.165" height="173.622" x="26.575" y="23.031" rx="17.595" ry="14.164"/><rect style="fill:url(#linearGradient2794);fill-opacity:.74901998;fill-rule:evenodd;stroke:none;stroke-width:3.5262673;stroke-linecap:butt;stroke-linejoin:miter;stroke-miterlimit:4;stroke-opacity:1" id="rect2169" width="170.382" height="159.8" x="30.118" y="26.554" rx="17.595" ry="14.164"/><rect style="fill:url(#linearGradient3417);fill-opacity:.74901998;fill-rule:evenodd;stroke:none;stroke-width:3pt;stroke-linecap:butt;stroke-linejoin:miter;stroke-opacity:1" id="rect3416" width="163.397" height="149.2" x="31.955" y="31.699" rx="17.595" ry="14.164"/><rect style="fill:none;fill-opacity:.74901998;fill-rule:evenodd;stroke:#000;stroke-width:3.5262673;stroke-linecap:butt;stroke-linejoin:miter;stroke-miterlimit:4;stroke-opacity:1" id="rect5928" width="170.382" height="159.8" x="29.993" y="26.575" rx="17.595" ry="14.164"/><path style="fill:none;fill-opacity:1;fill-rule:evenodd;stroke:#83a67f;stroke-width:13.884113;stroke-linecap:butt;stroke-linejoin:miter;stroke-opacity:1" id="path161" d="M 127.30553,48.412091 C 159.45548,47.917488 186.65918,80.067430 173.30453,115.67957"/><path style="fill:none;fill-opacity:1;fill-rule:evenodd;stroke:#83a67f;stroke-width:14.428587;stroke-linecap:butt;stroke-linejoin:miter;stroke-opacity:1" id="path162" d="M 115.47835,70.822594 C 138.47784,71.069785 151.09050,89.865062 150.59568,106.18754"/><path style="fill:none;fill-opacity:1;fill-rule:evenodd;stroke:#d1940c;stroke-width:13.339639;stroke-linecap:butt;stroke-linejoin:miter;stroke-opacity:1" id="path163" d="M 163.72354,138.83635 C 149.54952,175.81294 101.54879,180.31391 78.739696,151.66136"/><path style="fill:none;fill-opacity:1;fill-rule:evenodd;stroke:#d1940c;stroke-width:14.700828;stroke-linecap:butt;stroke-linejoin:miter;stroke-opacity:1" id="path164" d="M 150.59055,106.43158 C 150.26585,128.56972 128.47964,148.40367 101.46643,139.04123"/><path style="fill:none;fill-opacity:1;fill-rule:evenodd;stroke:#c5d2c8;stroke-width:13.884115;stroke-linecap:butt;stroke-linejoin:miter;stroke-opacity:1" id="path165" d="M 61.279646,129.03097 C 36.965996,97.256086 59.200470,48.338816 100.44393,48.868523"/><path style="fill:none;fill-opacity:1;fill-rule:evenodd;stroke:#c5d2c8;stroke-width:14.156352;stroke-linecap:butt;stroke-linejoin:miter;stroke-opacity:1" id="path166" d="M 114.97839,71.066690 C 99.235804,71.748852 85.600668,81.049873 81.319898,97.762210 C 77.083686,114.54788 84.801423,131.85182 101.21919,138.54674"/><path style="font-size:12;fill:none;fill-rule:evenodd;stroke:#000;stroke-width:1.7716535;stroke-miterlimit:4;stroke-dasharray:none" id="path149" d="M 115.47814,63.156015 L 115.47814,78.489084 M 143.17647,106.43458 L 158.50953,106.43480 M 104.84390,131.16528 L 98.166672,146.25117 M 158.50953,106.18739 C 158.50953,129.94088 139.23164,149.21877 115.47814,149.21877 C 91.724880,149.21877 72.446545,129.94088 72.446545,106.18739 C 72.446545,82.434133 91.724880,63.156015 115.47814,63.156015 C 139.23164,63.156015 158.50953,82.434133 158.50953,106.18739 z M 143.17647,106.18739 C 143.17647,121.47690 130.76766,133.88570 115.47814,133.88570 C 100.18863,133.88570 87.779614,121.47690 87.779614,106.18739 C 87.779614,90.897888 100.18863,78.489084 115.47814,78.489084 C 130.76766,78.489084 143.17647,90.897888 143.17647,106.18739 z"/><path style="font-size:12;fill:none;fill-rule:evenodd;stroke:#000;stroke-width:1.7716535;stroke-miterlimit:4;stroke-dasharray:none" id="path197" d="M 101.10127,55.830802 L 101.08799,43.095182 C 88.227913,42.920102 77.035467,46.498935 66.712875,54.555423 C 42.391830,73.538000 38.059112,108.68298 56.937589,132.87401 L 67.623237,125.38725 C 52.965970,107.05588 55.872595,80.105457 74.266703,65.292688 C 82.205366,58.899680 90.908037,55.830802 101.10127,55.830802 z"/><path style="font-size:12;fill:none;fill-rule:evenodd;stroke:#000;stroke-width:1.7716535;stroke-miterlimit:4;stroke-dasharray:none" id="path207" d="M 167.18770,112.95623 L 179.13369,117.85520 C 181.80075,111.43563 182.92085,105.42898 182.94937,98.346676 C 183.07374,67.494763 158.13570,42.354392 127.54208,42.353259 L 127.42905,55.212714 C 150.67508,55.336200 169.84234,74.503462 169.84234,98.120392 C 169.84234,103.44448 169.03391,107.96232 167.18770,112.95623 z"/><path style="font-size:12;fill:none;fill-rule:evenodd;stroke:#000;stroke-width:1.7716535;stroke-miterlimit:4;stroke-dasharray:none" id="path212" d="M 169.91347,140.80372 L 158.22577,136.12188 C 148.46007,157.67743 124.43674,169.19286 102.39030,160.72562 C 94.800096,157.81050 89.024088,153.53658 84.180439,147.18888 L 74.042750,155.67464 C 80.405702,163.69868 87.889837,169.20244 97.712166,172.97021 C 126.51751,184.01978 158.86391,169.60906 169.91347,140.80372 z"/></svg>